<?xml version="1.0" encoding="UTF-8"?>
<svg xmlns="http://www.w3.org/2000/svg" xmlns:xlink="http://www.w3.org/1999/xlink" width="375pt" height="374.999991pt" viewBox="0 0 375 374.999991" version="1.2">
<defs>
<clipPath id="clip1">
  <path d="M 99 96 L 257 96 L 257 286 L 99 286 Z M 99 96 "/>
</clipPath>
<clipPath id="clip2">
  <path d="M 181.648438 40.199219 L 332.285156 160.453125 L 193.316406 334.535156 L 42.679688 214.28125 Z M 181.648438 40.199219 "/>
</clipPath>
<clipPath id="clip3">
  <path d="M 181.648438 40.199219 L 332.285156 160.453125 L 193.316406 334.535156 L 42.679688 214.28125 Z M 181.648438 40.199219 "/>
</clipPath>
<clipPath id="clip4">
  <path d="M 181.648438 40.199219 L 332.140625 160.335938 L 193.285156 334.273438 L 42.796875 214.136719 Z M 181.648438 40.199219 "/>
</clipPath>
<clipPath id="clip5">
  <path d="M 164 44 L 189 44 L 189 105 L 164 105 Z M 164 44 "/>
</clipPath>
<clipPath id="clip6">
  <path d="M 181.648438 40.199219 L 332.285156 160.453125 L 193.316406 334.535156 L 42.679688 214.28125 Z M 181.648438 40.199219 "/>
</clipPath>
<clipPath id="clip7">
  <path d="M 181.648438 40.199219 L 332.285156 160.453125 L 193.316406 334.535156 L 42.679688 214.28125 Z M 181.648438 40.199219 "/>
</clipPath>
<clipPath id="clip8">
  <path d="M 181.648438 40.199219 L 332.140625 160.335938 L 193.285156 334.273438 L 42.796875 214.136719 Z M 181.648438 40.199219 "/>
</clipPath>
</defs>
<g id="surface1">
<rect x="0" y="0" width="375" height="374.999991" style="fill:rgb(90.19928%,68.629456%,35.289001%);fill-opacity:1;stroke:none;"/>
<g clip-path="url(#clip1)" clip-rule="nonzero">
<g clip-path="url(#clip2)" clip-rule="nonzero">
<g clip-path="url(#clip3)" clip-rule="nonzero">
<g clip-path="url(#clip4)" clip-rule="nonzero">
<path style=" stroke:none;fill-rule:nonzero;fill:rgb(65.098572%,82.749939%,53.329468%);fill-opacity:1;" d="M 172.367188 100.835938 C 191.664062 91.96875 215.765625 120.722656 220.449219 155.941406 C 223.421875 178.230469 252.710938 193.234375 256.484375 221.707031 C 260.316406 250.597656 236.65625 277.976562 182.917969 284.414062 C 139.625 289.605469 106.707031 263.324219 100.699219 230.675781 C 94.375 196.277344 121.386719 180.878906 130.964844 150.207031 C 140.546875 119.53125 149.78125 84.945312 172.367188 100.835938 Z M 172.367188 100.835938 "/>
</g>
</g>
</g>
</g>
<g clip-path="url(#clip5)" clip-rule="nonzero">
<g clip-path="url(#clip6)" clip-rule="nonzero">
<g clip-path="url(#clip7)" clip-rule="nonzero">
<g clip-path="url(#clip8)" clip-rule="nonzero">
<path style=" stroke:none;fill-rule:nonzero;fill:rgb(39.99939%,12.939453%,7.449341%);fill-opacity:1;" d="M 173.0625 104.757812 C 169.359375 105.25 165.988281 102.875 165.535156 99.460938 C 162.007812 72.933594 175.4375 49.265625 176.175781 48.066406 C 178.03125 45.035156 182.160156 43.929688 185.390625 45.582031 C 188.628906 47.234375 189.746094 51.035156 187.898438 54.066406 C 187.738281 54.324219 175.976562 75.335938 178.945312 97.675781 C 179.398438 101.09375 176.769531 104.261719 173.0625 104.757812 Z M 173.0625 104.757812 "/>
</g>
</g>
</g>
</g>
<path style=" stroke:none;fill-rule:nonzero;fill:rgb(28.239441%,29.798889%,33.729553%);fill-opacity:1;" d="M 75.089844 243.277344 L 19.453125 187.6875 L 75.476562 131.710938 L 86.867188 143.09375 L 42.234375 187.6875 L 86.480469 231.890625 L 75.089844 243.277344 "/>
<path style=" stroke:none;fill-rule:nonzero;fill:rgb(28.239441%,29.798889%,33.729553%);fill-opacity:1;" d="M 278.054688 131.714844 L 333.691406 187.300781 L 277.667969 243.277344 L 266.277344 231.898438 L 310.910156 187.304688 L 266.664062 143.097656 L 278.054688 131.714844 "/>
</g>
</svg>
